<?xml version="1.0" encoding="UTF-8" standalone="no"?>
<svg viewBox="0 0 986.00269 771.32367" xmlns="http://www.w3.org/2000/svg" xmlns:xlink="http://www.w3.org/1999/xlink">
<defs>
<clipPath id="clipPath3344">
<path d="m145.77866,424.88013c0,0 19.64843,26.62045 51.97326,48.80416s32.32483,29.78955 63.38203,38.02921 48.80416,8.87348 67.81876,4.43674 63.38203-126.76405 38.02922-143.24337-140.07428-64.64967-142.60956-64.64967-57.67764,39.29686-57.67764,39.29686z"/>
</clipPath>
<filter id="filter4166">
<feGaussianBlur stdDeviation=".94783"/>
</filter>
<linearGradient id="linearGradient4332">
<stop offset="0" stop-color="#fff"/>
<stop offset="1" stop-color="#fff" stop-opacity="0"/>
</linearGradient>
<linearGradient gradientUnits="userSpaceOnUse" id="linearGradient3356" x1="203.4563" x2="257.33102" xlink:href="#linearGradient4332" y1="183.39461" y2="571.92645"/>
<linearGradient gradientUnits="userSpaceOnUse" id="linearGradient4338" x1="314.29028" x2="290.99518" xlink:href="#linearGradient4332" y1="619.09351" y2="631.05939"/>
<linearGradient gradientUnits="userSpaceOnUse" id="linearGradient4342" x1="319.77255" x2="288.73703" xlink:href="#linearGradient4332" y1="608.45911" y2="635.909"/>
<linearGradient gradientUnits="userSpaceOnUse" id="linearGradient4358" x1="311.83118" x2="286.91968" xlink:href="#linearGradient4332" y1="610.35461" y2="629.20209"/>
<linearGradient gradientUnits="userSpaceOnUse" id="linearGradient4362" x1="329.75406" x2="286.19519" xlink:href="#linearGradient4332" y1="602.33948" y2="627.07721"/>
</defs>
<g filter="url(#filter4166)" transform="matrix(3.04377,0,0,3.04377,-498.90319,-1029.19835)">
<path d="m193.14168,462.39087c57.20342,54.5102 40.86309,51.53148 58.65485,108.08679 4.19955,13.34926 21.57086,13.25104 33.88291,9.84553 19.47962-5.38804 56.14133-22.37103-3.50453-76.76628-14.10307-12.86158-14.06396-38.07759-1.56603-63.31295 17.13962-34.6077-7.88767-51.49158-31.69102-51.49158s-78.68447,51.80875-55.77618,73.63849z"/>
<path d="m283.95146,341.21585c0,11.55163-6.24296,20.91607-13.94404,20.91607s-13.94405-9.36444-13.94405-20.91607 6.24296-20.91607 13.94405-20.91607 13.94404,9.36444 13.94404,20.91607z" transform="matrix(-.90374,.42809,.42809,.90374,343.06104,-56.75368)"/>
<path d="m283.95146,341.21585c0,11.55163-6.24296,20.91607-13.94404,20.91607s-13.94405-9.36444-13.94405-20.91607 6.24296-20.91607 13.94405-20.91607 13.94404,9.36444 13.94404,20.91607z" transform="matrix(-.67263,.31861,.31861,.67263,290.27619,59.26893)"/>
<path d="m283.95146,341.21585c0,11.55163-6.24296,20.91607-13.94404,20.91607s-13.94405-9.36444-13.94405-20.91607 6.24296-20.91607 13.94405-20.91607 13.94404,9.36444 13.94404,20.91607z" transform="matrix(-.4993,.23651,.23651,.4993,252.90592,157.06084)"/>
<path d="m283.95146,341.21585c0,11.55163-6.24296,20.91607-13.94404,20.91607s-13.94405-9.36444-13.94405-20.91607 6.24296-20.91607 13.94405-20.91607 13.94404,9.36444 13.94404,20.91607z" transform="matrix(-.4993,.23651,.23651,.4993,240.22951,172.27253)"/>
<path d="m283.95146,341.21585c0,11.55163-6.24296,20.91607-13.94404,20.91607s-13.94405-9.36444-13.94405-20.91607 6.24296-20.91607 13.94405-20.91607 13.94404,9.36444 13.94404,20.91607z" transform="matrix(-.42707,.2023,.2023,.42707,224.13038,224.85047)"/>
</g>
<g transform="matrix(3.04377,0,0,3.04377,-498.90319,-1029.19835)">
<path d="m193.14168,462.39087c57.20342,54.5102 40.86309,51.53148 58.65485,108.08679 4.19955,13.34926 21.57086,13.25104 33.88291,9.84553 19.47962-5.38804 56.14133-22.37103-3.50453-76.76628-14.10307-12.86158-14.06396-38.07759-1.56603-63.31295 17.13962-34.6077-7.88767-51.49158-31.69102-51.49158s-78.68447,51.80875-55.77618,73.63849z"/>
<path d="m283.95146,341.21585c0,11.55163-6.24296,20.91607-13.94404,20.91607s-13.94405-9.36444-13.94405-20.91607 6.24296-20.91607 13.94405-20.91607 13.94404,9.36444 13.94404,20.91607z" transform="matrix(-.90374,.42809,.42809,.90374,343.06104,-56.75368)"/>
<path d="m283.95146,341.21585c0,11.55163-6.24296,20.91607-13.94404,20.91607s-13.94405-9.36444-13.94405-20.91607 6.24296-20.91607 13.94405-20.91607 13.94404,9.36444 13.94404,20.91607z" transform="matrix(-.67263,.31861,.31861,.67263,290.27619,59.26893)"/>
<path d="m283.95146,341.21585c0,11.55163-6.24296,20.91607-13.94404,20.91607s-13.94405-9.36444-13.94405-20.91607 6.24296-20.91607 13.94405-20.91607 13.94404,9.36444 13.94404,20.91607z" transform="matrix(-.4993,.23651,.23651,.4993,252.90592,157.06084)"/>
<path d="m283.95146,341.21585c0,11.55163-6.24296,20.91607-13.94404,20.91607s-13.94405-9.36444-13.94405-20.91607 6.24296-20.91607 13.94405-20.91607 13.94404,9.36444 13.94404,20.91607z" transform="matrix(-.4993,.23651,.23651,.4993,240.22951,172.27253)"/>
<path d="m283.95146,341.21585c0,11.55163-6.24296,20.91607-13.94404,20.91607s-13.94405-9.36444-13.94405-20.91607 6.24296-20.91607 13.94405-20.91607 13.94404,9.36444 13.94404,20.91607z" transform="matrix(-.42707,.2023,.2023,.42707,224.13038,224.85047)"/>
</g>
<g fill="#008080" opacity=".33" transform="matrix(3.04377,0,0,3.04377,-498.90319,-1029.19835)">
<path d="m193.14168,462.39087c57.20342,54.5102 40.86309,51.53148 58.65485,108.08679 4.19955,13.34926 21.57086,13.25104 33.88291,9.84553 19.47962-5.38804 56.14133-22.37103-3.50453-76.76628-14.10307-12.86158-14.06396-38.07759-1.56603-63.31295 17.13962-34.6077-7.88767-51.49158-31.69102-51.49158s-78.68447,51.80875-55.77618,73.63849z" fill="#008080"/>
<path d="m283.95146,341.21585c0,11.55163-6.24296,20.91607-13.94404,20.91607s-13.94405-9.36444-13.94405-20.91607 6.24296-20.91607 13.94405-20.91607 13.94404,9.36444 13.94404,20.91607z" fill="#008080" transform="matrix(-.90374,.42809,.42809,.90374,343.06104,-56.75368)"/>
<path d="m283.95146,341.21585c0,11.55163-6.24296,20.91607-13.94404,20.91607s-13.94405-9.36444-13.94405-20.91607 6.24296-20.91607 13.94405-20.91607 13.94404,9.36444 13.94404,20.91607z" fill="#008080" transform="matrix(-.67263,.31861,.31861,.67263,290.27619,59.26893)"/>
<path d="m283.95146,341.21585c0,11.55163-6.24296,20.91607-13.94404,20.91607s-13.94405-9.36444-13.94405-20.91607 6.24296-20.91607 13.94405-20.91607 13.94404,9.36444 13.94404,20.91607z" fill="#008080" transform="matrix(-.4993,.23651,.23651,.4993,252.90592,157.06084)"/>
<path d="m283.95146,341.21585c0,11.55163-6.24296,20.91607-13.94404,20.91607s-13.94405-9.36444-13.94405-20.91607 6.24296-20.91607 13.94405-20.91607 13.94404,9.36444 13.94404,20.91607z" fill="#008080" transform="matrix(-.4993,.23651,.23651,.4993,240.22951,172.27253)"/>
<path d="m283.95146,341.21585c0,11.55163-6.24296,20.91607-13.94404,20.91607s-13.94405-9.36444-13.94405-20.91607 6.24296-20.91607 13.94405-20.91607 13.94404,9.36444 13.94404,20.91607z" fill="#008080" transform="matrix(-.42707,.2023,.2023,.42707,224.13038,224.85047)"/>
</g>
<g transform="matrix(3.04377,0,0,3.04377,-498.90319,-1029.19835)">
<path d="m193.14168,462.39087c57.20342,54.5102 40.86309,51.53148 58.65485,108.08679 4.19955,13.34926 21.57086,13.25104 33.88291,9.84553 19.47962-5.38804 56.14133-22.37103-3.50453-76.76628-14.10307-12.86158-14.06396-38.07759-1.56603-63.31295 17.13962-34.6077-7.88767-51.49158-31.69102-51.49158s-78.68447,51.80875-55.77618,73.63849z"/>
<path d="m283.95146,341.21585c0,11.55163-6.24296,20.91607-13.94404,20.91607s-13.94405-9.36444-13.94405-20.91607 6.24296-20.91607 13.94405-20.91607 13.94404,9.36444 13.94404,20.91607z" transform="matrix(-.90374,.42809,.42809,.90374,343.06104,-56.75368)"/>
<path d="m283.95146,341.21585c0,11.55163-6.24296,20.91607-13.94404,20.91607s-13.94405-9.36444-13.94405-20.91607 6.24296-20.91607 13.94405-20.91607 13.94404,9.36444 13.94404,20.91607z" transform="matrix(-.67263,.31861,.31861,.67263,290.27619,59.26893)"/>
<path d="m283.95146,341.21585c0,11.55163-6.24296,20.91607-13.94404,20.91607s-13.94405-9.36444-13.94405-20.91607 6.24296-20.91607 13.94405-20.91607 13.94404,9.36444 13.94404,20.91607z" transform="matrix(-.4993,.23651,.23651,.4993,252.90592,157.06084)"/>
<path d="m283.95146,341.21585c0,11.55163-6.24296,20.91607-13.94404,20.91607s-13.94405-9.36444-13.94405-20.91607 6.24296-20.91607 13.94405-20.91607 13.94404,9.36444 13.94404,20.91607z" transform="matrix(-.4993,.23651,.23651,.4993,240.22951,172.27253)"/>
<path d="m283.95146,341.21585c0,11.55163-6.24296,20.91607-13.94404,20.91607s-13.94405-9.36444-13.94405-20.91607 6.24296-20.91607 13.94405-20.91607 13.94404,9.36444 13.94404,20.91607z" transform="matrix(-.42707,.2023,.2023,.42707,224.13038,224.85047)"/>
</g>
<g clip-path="url(#clipPath3344)" fill="url(#linearGradient3356)" transform="matrix(2.89753,0,0,2.89753,-466.24791,-972.61294)">
<path d="m193.14168,462.39087c57.20342,54.5102 40.86309,51.53148 58.65485,108.08679 4.19955,13.34926 21.57086,13.25104 33.88291,9.84553 19.47962-5.38804 56.14133-22.37103-3.50453-76.76628-14.10307-12.86158-14.06396-38.07759-1.56603-63.31295 17.13962-34.6077-7.88767-51.49158-31.69102-51.49158s-78.68447,51.80875-55.77618,73.63849z" fill="url(#linearGradient3356)"/>
<path d="m283.95146,341.21585c0,11.55163-6.24296,20.91607-13.94404,20.91607s-13.94405-9.36444-13.94405-20.91607 6.24296-20.91607 13.94405-20.91607 13.94404,9.36444 13.94404,20.91607z" fill="url(#linearGradient3356)" transform="matrix(-.90374,.42809,.42809,.90374,343.06104,-56.75368)"/>
<path d="m283.95146,341.21585c0,11.55163-6.24296,20.91607-13.94404,20.91607s-13.94405-9.36444-13.94405-20.91607 6.24296-20.91607 13.94405-20.91607 13.94404,9.36444 13.94404,20.91607z" fill="url(#linearGradient3356)" transform="matrix(-.67263,.31861,.31861,.67263,290.27619,59.26893)"/>
<path d="m283.95146,341.21585c0,11.55163-6.24296,20.91607-13.94404,20.91607s-13.94405-9.36444-13.94405-20.91607 6.24296-20.91607 13.94405-20.91607 13.94404,9.36444 13.94404,20.91607z" fill="url(#linearGradient3356)" transform="matrix(-.4993,.23651,.23651,.4993,252.90592,157.06084)"/>
<path d="m283.95146,341.21585c0,11.55163-6.24296,20.91607-13.94404,20.91607s-13.94405-9.36444-13.94405-20.91607 6.24296-20.91607 13.94405-20.91607 13.94404,9.36444 13.94404,20.91607z" fill="url(#linearGradient3356)" transform="matrix(-.4993,.23651,.23651,.4993,240.22951,172.27253)"/>
<path d="m283.95146,341.21585c0,11.55163-6.24296,20.91607-13.94404,20.91607s-13.94405-9.36444-13.94405-20.91607 6.24296-20.91607 13.94405-20.91607 13.94404,9.36444 13.94404,20.91607z" fill="url(#linearGradient3356)" transform="matrix(-.42707,.2023,.2023,.42707,224.13038,224.85047)"/>
</g>
<path d="m306.76901,627.06879c0,8.05113-3.83091,14.57786-8.55658,14.57786s-8.55657-6.52673-8.55657-14.57786 3.83091-14.57787 8.55657-14.57787 8.55658,6.52673 8.55658,14.57787z" fill="url(#linearGradient4338)" transform="matrix(2.91593,-.94164,1.57259,2.04294,-1612.32784,-933.96265)"/>
<path d="m306.76901,627.06879c0,8.05113-3.83091,14.57786-8.55658,14.57786s-8.55657-6.52673-8.55657-14.57786 3.83091-14.57787 8.55657-14.57787 8.55658,6.52673 8.55658,14.57787z" fill="url(#linearGradient4342)" transform="matrix(2.38355,-.63169,1.17613,1.70909,-1283.65225,-786.17296)"/>
<path d="m306.76901,627.06879c0,8.05113-3.83091,14.57786-8.55658,14.57786s-8.55657-6.52673-8.55657-14.57786 3.83091-14.57787 8.55657-14.57787 8.55658,6.52673 8.55658,14.57787z" fill="url(#linearGradient4342)" transform="matrix(1.51768,-.23491,.61634,1.13566,-731.32541,-495.07561)"/>
<path d="m306.76901,627.06879c0,8.05113-3.83091,14.57786-8.55658,14.57786s-8.55657-6.52673-8.55657-14.57786 3.83091-14.57787 8.55657-14.57787 8.55658,6.52673 8.55658,14.57787z" fill="url(#linearGradient4342)" transform="matrix(1.52896,-.1443,.54776,1.17028,-729.78277,-496.54459)"/>
<path d="m306.76901,627.06879c0,8.05113-3.83091,14.57786-8.55658,14.57786s-8.55657-6.52673-8.55657-14.57786 3.83091-14.57787 8.55657-14.57787 8.55658,6.52673 8.55658,14.57787z" fill="url(#linearGradient4342)" transform="matrix(1.528,-.15409,.55525,1.16675,-759.27476,-431.1177)"/>
<path d="m306.76901,627.06879c0,8.05113-3.83091,14.57786-8.55658,14.57786s-8.55657-6.52673-8.55657-14.57786 3.83091-14.57787 8.55657-14.57787 8.55658,6.52673 8.55658,14.57787z" fill="url(#linearGradient4358)" transform="matrix(5.08775,-1.38898,2.74387,3.01348,-2939.90034,-1273.763)"/>
<path d="m306.76901,627.06879c0,8.05113-3.83091,14.57786-8.55658,14.57786s-8.55657-6.52673-8.55657-14.57786 3.83091-14.57787 8.55657-14.57787 8.55658,6.52673 8.55658,14.57787z" fill="url(#linearGradient4362)" transform="matrix(-3.99693,6.58611,-5.93502,.01665,5274.95469,-1290.278)"/>
<g filter="url(#filter4166)" transform="matrix(-3.04377,0,0,3.04377,1463.9753,-1023.74175)">
<path d="m193.14168,462.39087c57.20342,54.5102 40.86309,51.53148 58.65485,108.08679 4.19955,13.34926 21.57086,13.25104 33.88291,9.84553 19.47962-5.38804 56.14133-22.37103-3.50453-76.76628-14.10307-12.86158-14.06396-38.07759-1.56603-63.31295 17.13962-34.6077-7.88767-51.49158-31.69102-51.49158s-78.68447,51.80875-55.77618,73.63849z"/>
<path d="m283.95146,341.21585c0,11.55163-6.24296,20.91607-13.94404,20.91607s-13.94405-9.36444-13.94405-20.91607 6.24296-20.91607 13.94405-20.91607 13.94404,9.36444 13.94404,20.91607z" transform="matrix(-.90374,.42809,.42809,.90374,343.06104,-56.75368)"/>
<path d="m283.95146,341.21585c0,11.55163-6.24296,20.91607-13.94404,20.91607s-13.94405-9.36444-13.94405-20.91607 6.24296-20.91607 13.94405-20.91607 13.94404,9.36444 13.94404,20.91607z" transform="matrix(-.67263,.31861,.31861,.67263,290.27619,59.26893)"/>
<path d="m283.95146,341.21585c0,11.55163-6.24296,20.91607-13.94404,20.91607s-13.94405-9.36444-13.94405-20.91607 6.24296-20.91607 13.94405-20.91607 13.94404,9.36444 13.94404,20.91607z" transform="matrix(-.4993,.23651,.23651,.4993,252.90592,157.06084)"/>
<path d="m283.95146,341.21585c0,11.55163-6.24296,20.91607-13.94404,20.91607s-13.94405-9.36444-13.94405-20.91607 6.24296-20.91607 13.94405-20.91607 13.94404,9.36444 13.94404,20.91607z" transform="matrix(-.4993,.23651,.23651,.4993,240.22951,172.27253)"/>
<path d="m283.95146,341.21585c0,11.55163-6.24296,20.91607-13.94404,20.91607s-13.94405-9.36444-13.94405-20.91607 6.24296-20.91607 13.94405-20.91607 13.94404,9.36444 13.94404,20.91607z" transform="matrix(-.42707,.2023,.2023,.42707,224.13038,224.85047)"/>
</g>
<g transform="matrix(-3.04377,0,0,3.04377,1463.9753,-1023.74175)">
<path d="m193.14168,462.39087c57.20342,54.5102 40.86309,51.53148 58.65485,108.08679 4.19955,13.34926 21.57086,13.25104 33.88291,9.84553 19.47962-5.38804 56.14133-22.37103-3.50453-76.76628-14.10307-12.86158-14.06396-38.07759-1.56603-63.31295 17.13962-34.6077-7.88767-51.49158-31.69102-51.49158s-78.68447,51.80875-55.77618,73.63849z"/>
<path d="m283.95146,341.21585c0,11.55163-6.24296,20.91607-13.94404,20.91607s-13.94405-9.36444-13.94405-20.91607 6.24296-20.91607 13.94405-20.91607 13.94404,9.36444 13.94404,20.91607z" transform="matrix(-.90374,.42809,.42809,.90374,343.06104,-56.75368)"/>
<path d="m283.95146,341.21585c0,11.55163-6.24296,20.91607-13.94404,20.91607s-13.94405-9.36444-13.94405-20.91607 6.24296-20.91607 13.94405-20.91607 13.94404,9.36444 13.94404,20.91607z" transform="matrix(-.67263,.31861,.31861,.67263,290.27619,59.26893)"/>
<path d="m283.95146,341.21585c0,11.55163-6.24296,20.91607-13.94404,20.91607s-13.94405-9.36444-13.94405-20.91607 6.24296-20.91607 13.94405-20.91607 13.94404,9.36444 13.94404,20.91607z" transform="matrix(-.4993,.23651,.23651,.4993,252.90592,157.06084)"/>
<path d="m283.95146,341.21585c0,11.55163-6.24296,20.91607-13.94404,20.91607s-13.94405-9.36444-13.94405-20.91607 6.24296-20.91607 13.94405-20.91607 13.94404,9.36444 13.94404,20.91607z" transform="matrix(-.4993,.23651,.23651,.4993,240.22951,172.27253)"/>
<path d="m283.95146,341.21585c0,11.55163-6.24296,20.91607-13.94404,20.91607s-13.94405-9.36444-13.94405-20.91607 6.24296-20.91607 13.94405-20.91607 13.94404,9.36444 13.94404,20.91607z" transform="matrix(-.42707,.2023,.2023,.42707,224.13038,224.85047)"/>
</g>
<g fill="#008080" opacity=".33" transform="matrix(-3.04377,0,0,3.04377,1463.9753,-1023.74175)">
<path d="m193.14168,462.39087c57.20342,54.5102 40.86309,51.53148 58.65485,108.08679 4.19955,13.34926 21.57086,13.25104 33.88291,9.84553 19.47962-5.38804 56.14133-22.37103-3.50453-76.76628-14.10307-12.86158-14.06396-38.07759-1.56603-63.31295 17.13962-34.6077-7.88767-51.49158-31.69102-51.49158s-78.68447,51.80875-55.77618,73.63849z" fill="#008080"/>
<path d="m283.95146,341.21585c0,11.55163-6.24296,20.91607-13.94404,20.91607s-13.94405-9.36444-13.94405-20.91607 6.24296-20.91607 13.94405-20.91607 13.94404,9.36444 13.94404,20.91607z" fill="#008080" transform="matrix(-.90374,.42809,.42809,.90374,343.06104,-56.75368)"/>
<path d="m283.95146,341.21585c0,11.55163-6.24296,20.91607-13.94404,20.91607s-13.94405-9.36444-13.94405-20.91607 6.24296-20.91607 13.94405-20.91607 13.94404,9.36444 13.94404,20.91607z" fill="#008080" transform="matrix(-.67263,.31861,.31861,.67263,290.27619,59.26893)"/>
<path d="m283.95146,341.21585c0,11.55163-6.24296,20.91607-13.94404,20.91607s-13.94405-9.36444-13.94405-20.91607 6.24296-20.91607 13.94405-20.91607 13.94404,9.36444 13.94404,20.91607z" fill="#008080" transform="matrix(-.4993,.23651,.23651,.4993,252.90592,157.06084)"/>
<path d="m283.95146,341.21585c0,11.55163-6.24296,20.91607-13.94404,20.91607s-13.94405-9.36444-13.94405-20.91607 6.24296-20.91607 13.94405-20.91607 13.94404,9.36444 13.94404,20.91607z" fill="#008080" transform="matrix(-.4993,.23651,.23651,.4993,240.22951,172.27253)"/>
<path d="m283.95146,341.21585c0,11.55163-6.24296,20.91607-13.94404,20.91607s-13.94405-9.36444-13.94405-20.91607 6.24296-20.91607 13.94405-20.91607 13.94404,9.36444 13.94404,20.91607z" fill="#008080" transform="matrix(-.42707,.2023,.2023,.42707,224.13038,224.85047)"/>
</g>
<g transform="matrix(-3.04377,0,0,3.04377,1463.9753,-1023.74175)">
<path d="m193.14168,462.39087c57.20342,54.5102 40.86309,51.53148 58.65485,108.08679 4.19955,13.34926 21.57086,13.25104 33.88291,9.84553 19.47962-5.38804 56.14133-22.37103-3.50453-76.76628-14.10307-12.86158-14.06396-38.07759-1.56603-63.31295 17.13962-34.6077-7.88767-51.49158-31.69102-51.49158s-78.68447,51.80875-55.77618,73.63849z"/>
<path d="m283.95146,341.21585c0,11.55163-6.24296,20.91607-13.94404,20.91607s-13.94405-9.36444-13.94405-20.91607 6.24296-20.91607 13.94405-20.91607 13.94404,9.36444 13.94404,20.91607z" transform="matrix(-.90374,.42809,.42809,.90374,343.06104,-56.75368)"/>
<path d="m283.95146,341.21585c0,11.55163-6.24296,20.91607-13.94404,20.91607s-13.94405-9.36444-13.94405-20.91607 6.24296-20.91607 13.94405-20.91607 13.94404,9.36444 13.94404,20.91607z" transform="matrix(-.67263,.31861,.31861,.67263,290.27619,59.26893)"/>
<path d="m283.95146,341.21585c0,11.55163-6.24296,20.91607-13.94404,20.91607s-13.94405-9.36444-13.94405-20.91607 6.24296-20.91607 13.94405-20.91607 13.94404,9.36444 13.94404,20.91607z" transform="matrix(-.4993,.23651,.23651,.4993,252.90592,157.06084)"/>
<path d="m283.95146,341.21585c0,11.55163-6.24296,20.91607-13.94404,20.91607s-13.94405-9.36444-13.94405-20.91607 6.24296-20.91607 13.94405-20.91607 13.94404,9.36444 13.94404,20.91607z" transform="matrix(-.4993,.23651,.23651,.4993,240.22951,172.27253)"/>
<path d="m283.95146,341.21585c0,11.55163-6.24296,20.91607-13.94404,20.91607s-13.94405-9.36444-13.94405-20.91607 6.24296-20.91607 13.94405-20.91607 13.94404,9.36444 13.94404,20.91607z" transform="matrix(-.42707,.2023,.2023,.42707,224.13038,224.85047)"/>
</g>
<g clip-path="url(#clipPath3344)" fill="url(#linearGradient3356)" transform="matrix(-2.89753,0,0,2.89753,1431.31999,-967.15634)">
<path d="m193.14168,462.39087c57.20342,54.5102 40.86309,51.53148 58.65485,108.08679 4.19955,13.34926 21.57086,13.25104 33.88291,9.84553 19.47962-5.38804 56.14133-22.37103-3.50453-76.76628-14.10307-12.86158-14.06396-38.07759-1.56603-63.31295 17.13962-34.6077-7.88767-51.49158-31.69102-51.49158s-78.68447,51.80875-55.77618,73.63849z" fill="url(#linearGradient3356)"/>
<path d="m283.95146,341.21585c0,11.55163-6.24296,20.91607-13.94404,20.91607s-13.94405-9.36444-13.94405-20.91607 6.24296-20.91607 13.94405-20.91607 13.94404,9.36444 13.94404,20.91607z" fill="url(#linearGradient3356)" transform="matrix(-.90374,.42809,.42809,.90374,343.06104,-56.75368)"/>
<path d="m283.95146,341.21585c0,11.55163-6.24296,20.91607-13.94404,20.91607s-13.94405-9.36444-13.94405-20.91607 6.24296-20.91607 13.94405-20.91607 13.94404,9.36444 13.94404,20.91607z" fill="url(#linearGradient3356)" transform="matrix(-.67263,.31861,.31861,.67263,290.27619,59.26893)"/>
<path d="m283.95146,341.21585c0,11.55163-6.24296,20.91607-13.94404,20.91607s-13.94405-9.36444-13.94405-20.91607 6.24296-20.91607 13.94405-20.91607 13.94404,9.36444 13.94404,20.91607z" fill="url(#linearGradient3356)" transform="matrix(-.4993,.23651,.23651,.4993,252.90592,157.06084)"/>
<path d="m283.95146,341.21585c0,11.55163-6.24296,20.91607-13.94404,20.91607s-13.94405-9.36444-13.94405-20.91607 6.24296-20.91607 13.94405-20.91607 13.94404,9.36444 13.94404,20.91607z" fill="url(#linearGradient3356)" transform="matrix(-.4993,.23651,.23651,.4993,240.22951,172.27253)"/>
<path d="m283.95146,341.21585c0,11.55163-6.24296,20.91607-13.94404,20.91607s-13.94405-9.36444-13.94405-20.91607 6.24296-20.91607 13.94405-20.91607 13.94404,9.36444 13.94404,20.91607z" fill="url(#linearGradient3356)" transform="matrix(-.42707,.2023,.2023,.42707,224.13038,224.85047)"/>
</g>
<path d="m306.76901,627.06879c0,8.05113-3.83091,14.57786-8.55658,14.57786s-8.55657-6.52673-8.55657-14.57786 3.83091-14.57787 8.55657-14.57787 8.55658,6.52673 8.55658,14.57787z" fill="url(#linearGradient4338)" transform="matrix(-2.91593,-.94164,-1.57259,2.04294,2577.39983,-928.50606)"/>
<path d="m306.76901,627.06879c0,8.05113-3.83091,14.57786-8.55658,14.57786s-8.55657-6.52673-8.55657-14.57786 3.83091-14.57787 8.55657-14.57787 8.55658,6.52673 8.55658,14.57787z" fill="url(#linearGradient4342)" transform="matrix(-2.38355,-.63169,-1.17613,1.70909,2248.72436,-780.71636)"/>
<path d="m306.76901,627.06879c0,8.05113-3.83091,14.57786-8.55658,14.57786s-8.55657-6.52673-8.55657-14.57786 3.83091-14.57787 8.55657-14.57787 8.55658,6.52673 8.55658,14.57787z" fill="url(#linearGradient4342)" transform="matrix(-1.51768,-.23491,-.61634,1.13566,1696.39751,-489.61901)"/>
<path d="m306.76901,627.06879c0,8.05113-3.83091,14.57786-8.55658,14.57786s-8.55657-6.52673-8.55657-14.57786 3.83091-14.57787 8.55657-14.57787 8.55658,6.52673 8.55658,14.57787z" fill="url(#linearGradient4342)" transform="matrix(-1.52896,-.1443,-.54776,1.17028,1694.85487,-491.088)"/>
<path d="m306.76901,627.06879c0,8.05113-3.83091,14.57786-8.55658,14.57786s-8.55657-6.52673-8.55657-14.57786 3.83091-14.57787 8.55657-14.57787 8.55658,6.52673 8.55658,14.57787z" fill="url(#linearGradient4342)" transform="matrix(-1.528,-.15409,-.55525,1.16675,1724.34685,-425.66111)"/>
<path d="m306.76901,627.06879c0,8.05113-3.83091,14.57786-8.55658,14.57786s-8.55657-6.52673-8.55657-14.57786 3.83091-14.57787 8.55657-14.57787 8.55658,6.52673 8.55658,14.57787z" fill="url(#linearGradient4358)" transform="matrix(-5.08775,-1.38898,-2.74387,3.01348,3904.97239,-1268.30641)"/>
<path d="m306.76901,627.06879c0,8.05113-3.83091,14.57786-8.55658,14.57786s-8.55657-6.52673-8.55657-14.57786 3.83091-14.57787 8.55657-14.57787 8.55658,6.52673 8.55658,14.57787z" fill="url(#linearGradient4362)" transform="matrix(3.99693,6.58611,5.93502,.01665,-4309.88242,-1284.82141)"/>
</svg>
