<?xml version="1.0" encoding="UTF-8" standalone="no"?>
<svg viewBox="0 0 367.00177 335.25424" xmlns="http://www.w3.org/2000/svg">
<g transform="translate(-423.49063,22.71187)">
<path d="m586.87747,244.95781c-17.40579-7.71075-1.62025-34.86063-23.46845-70.8851-24.19233-39.88958-36.07818-65.97493-21.88809-76.7291 9.93591-8.43888 24.12385-14.45184 40.60938-17.21056 12.34896-2.0665 30.41356-1.63839 39.72496.94144 18.57947,5.14766 28.18177,15.43415 18.84195,28.3377-34.76065,34.77833-26.94559,68.7222-3.10473,96.74443 15.39524,27.63548-21.11163,45.47708-50.71502,38.80119z"/>
<path d="m537.95523,90.64737c-4.58964-2.79843-9.12238-13.04552-8.19603-18.52859 1.19891-7.09627 8.64078-11.41941 13.32064-7.73824 5.28929,4.16056 5.47356,22.91699.261,26.56801-1.81168,1.26896-2.91133,1.20746-5.38561-.30118z"/>
<path d="m642.69698,81.87928c-2.5231-.34428-6.04398-4.00807-7.03707-7.32272-.44659-1.49058-.81198-4.6472-.81198-7.01473 0-18.44862 15.1791-33.28411 32.6224-31.88393 12.09153.97059 14.60537,10.06272 6.48027,23.43807-8.40018,13.82819-22.35099,23.99807-31.25362,22.78331z"/>
<path d="m582.73207,74.25722c-3.89083-2.69592-7.30468-11.59353-7.02107-18.29919 .19177-4.53419 2.00422-8.87867 4.66091-11.17226 2.64988-2.28772 8.63932-3.32821 11.09031-1.92662 5.16281,2.95235 5.74499,15.32576 1.18953,25.28191-3.02017,6.60069-6.30098,8.62353-9.91968,6.11616z"/>
<path d="m559.27028,80.29031c-3.4928-2.15301-6.86041-9.69611-6.92597-15.51345-.0443-3.93352 1.32295-7.77802 3.51609-9.88649 2.18753-2.10308 7.32351-3.2815 9.51-2.18202 4.60568,2.31597 5.68353,12.99894 2.2023,21.82792-2.30798,5.8534-5.0539,7.75648-8.30242,5.75404z"/>
<path d="m611.35353,73.22057c-3.88566-3.05646-6.88196-12.54791-6.16232-19.52052 .4866-4.71469 2.65074-9.12914 5.5653-11.35218s9.21678-2.92335 11.68327-1.30725c5.19547,3.40421 5.02005,16.34008-.35845,26.43116-3.56581,6.69014-7.1139,8.59149-10.7278,5.74879z"/>
</g>
<path d="m69.75088,36.04899-17.8125,17.8125 113.75001,113.78126-113.75001,113.75 17.8125,17.8125 113.75001-113.78125 113.7812,113.78125 17.7813-17.8125-113.75-113.75 113.75-113.78126-17.7813-17.8125-113.7812,113.78126-113.75001-113.78126z" stroke="#fff" stroke-linejoin="round" stroke-width="6"/>
<path d="m15,10h337.00177a5,5 0 0,1 5,5v305.25424a5,5 0 0,1 -5,5h-337.00177a5,5 0 0,1 -5-5v-305.25424a5,5 0 0,1 5-5" fill="none" stroke="#000" stroke-linejoin="round" stroke-width="20"/>
</svg>
